<svg xmlns="http://www.w3.org/2000/svg" version="1.1" xmlns:xlink="http://www.w3.org/1999/xlink" xmlns:svgjs="http://svgjs.dev/svgjs" width="1500" height="212" viewBox="0 0 1500 212"><g transform="matrix(1,0,0,1,-0.9090909090909918,-0.9315710319028057)"><svg viewBox="0 0 396 56" data-background-color="#ffffff" preserveAspectRatio="xMidYMid meet" height="212" width="1500" xmlns="http://www.w3.org/2000/svg" xmlns:xlink="http://www.w3.org/1999/xlink"><g id="tight-bounds" transform="matrix(1,0,0,1,0.2400000000000091,0.24607536691772225)"><svg viewBox="0 0 395.52 55.507849266164556" height="55.507849266164556" width="395.52"><g><svg viewBox="0 0 455.6872706507554 63.951811113956474" height="55.507849266164556" width="395.52"><g transform="matrix(1,0,0,1,0,8.838491984635088)"><svg viewBox="0 0 395.52 46.2748271446863" height="46.2748271446863" width="395.52"><g id="textblocktransform"><svg viewBox="0 0 395.52 46.2748271446863" height="46.2748271446863" width="395.52" id="textblock"><g><svg viewBox="0 0 395.52 46.2748271446863" height="46.2748271446863" width="395.52"><g transform="matrix(1,0,0,1,0,0)"><svg width="395.52" viewBox="1.05 -36.2 312.37 36.550000000000004" height="46.2748271446863" data-palette-color="#ed2647"><path d="M15.25 0.2L15.25 0.2Q13.8 0.25 12.35-0.05 10.9-0.35 9.9-1.3L9.9-1.3Q9.95-2.55 9.88-5 9.8-7.45 9.6-10.48 9.4-13.5 8.97-16.6 8.55-19.7 7.88-22.33 7.2-24.95 6.25-26.55 5.3-28.15 4-28.15L4-28.15Q2.85-28.15 1.4-26.9L1.4-26.9 1.05-27.2Q2.45-31.5 4.73-33.75 7-36 9.45-36L9.45-36Q11.6-36 13.05-34.5 14.5-33 15.38-30.48 16.25-27.95 16.63-24.83 17-21.7 17-18.45L17-18.45Q17-15.85 16.8-13.35 16.6-10.85 16.25-8.75L16.25-8.75Q18.9-12.1 20.7-16.07 22.5-20.05 23.45-23.98 24.4-27.9 24.4-31.05L24.4-31.05Q24.4-31.65 24.35-32.27 24.3-32.9 24.2-33.4L24.2-33.4Q25.25-34.75 26.9-35.48 28.55-36.2 30.2-36.2L30.2-36.2Q31.8-36.2 33-35.52 34.2-34.85 34.5-33.4L34.5-33.4Q33.85-28.65 31.93-23.9 30-19.15 27.25-14.73 24.5-10.3 21.38-6.5 18.25-2.7 15.25 0.2ZM44.8-26.75L44.8-26.75Q42.8-26.75 41.52-27.98 40.25-29.2 40.25-31.05L40.25-31.05Q40.25-33.05 41.75-34.5 43.25-35.95 45.4-35.95L45.4-35.95Q47.4-35.95 48.67-34.7 49.95-33.45 49.95-31.6L49.95-31.6Q49.95-29.6 48.45-28.18 46.95-26.75 44.8-26.75ZM41.3 0.2L41.3 0.2Q39.35 0.2 37.8-1.18 36.25-2.55 36.25-5.6L36.25-5.6Q36.25-7.35 36.72-8.88 37.2-10.4 37.82-11.85 38.45-13.3 38.92-14.68 39.4-16.05 39.4-17.4L39.4-17.4Q39.4-18.6 39-19.13 38.6-19.65 38.05-19.65L38.05-19.65Q37.2-19.65 36.4-18.55L36.4-18.55 36.05-18.75Q36.25-20.75 37.32-22.18 38.4-23.6 39.97-24.4 41.55-25.2 43.1-25.2L43.1-25.2Q45-25.2 46.4-23.98 47.8-22.75 47.8-20L47.8-20Q47.8-18.35 47.32-16.53 46.85-14.7 46.22-12.9 45.6-11.1 45.12-9.55 44.65-8 44.65-6.9L44.65-6.9Q44.65-5.95 45.02-5.55 45.4-5.15 45.85-5.15L45.85-5.15Q46.3-5.15 46.72-5.43 47.15-5.7 47.35-6.05L47.35-6.05 47.7-5.95Q47.7-4.1 46.72-2.73 45.75-1.35 44.3-0.58 42.85 0.2 41.3 0.2ZM57 0.35L57 0.35Q55.05 0.25 53.62-1.03 52.2-2.3 51.65-5.5L51.65-5.5Q54.05-6.25 56.42-8.33 58.8-10.4 61.12-13.13 63.45-15.85 65.7-18.45L65.7-18.45Q64.9-18.95 64.15-19.15 63.4-19.35 62.75-19.35L62.75-19.35Q61.4-19.35 60.57-18.63 59.75-17.9 59.75-16.7L59.75-16.7Q59.75-15.6 60.55-14.2L60.55-14.2Q59.95-14.1 59.4-14.05 58.85-14 58.4-14L58.4-14Q55.25-14 53.75-15.65 52.25-17.3 52.25-19.3L52.25-19.3Q52.25-20.75 52.97-22.13 53.7-23.5 55.15-24.38 56.6-25.25 58.65-25.25L58.65-25.25Q60.55-25.25 62.92-24.33 65.3-23.4 68.15-21.2L68.15-21.2Q69.59-22.75 70.97-23.95 72.34-25.15 73.75-25.8L73.75-25.8Q76.5-25.35 77.67-23.88 78.84-22.4 78.84-20.75L78.84-20.75Q78.84-20.45 78.82-20.2 78.8-19.95 78.75-19.7L78.75-19.7Q75.7-18.45 73.52-16.38 71.34-14.3 69.5-11.83 67.65-9.35 65.45-6.8L65.45-6.8Q66.34-6.05 67.2-5.73 68.05-5.4 68.75-5.4L68.75-5.4Q70.09-5.4 70.95-6.33 71.8-7.25 71.8-8.5L71.8-8.5Q71.8-8.9 71.72-9.3 71.65-9.7 71.4-10.1L71.4-10.1Q72-10.2 72.57-10.28 73.15-10.35 73.7-10.35L73.7-10.35Q76.5-10.35 77.8-8.93 79.09-7.5 79.09-5.65L79.09-5.65Q79.09-4.25 78.34-2.85 77.59-1.45 76.15-0.55 74.7 0.35 72.65 0.35L72.65 0.35Q70.75 0.35 68.32-0.7 65.9-1.75 63.05-4.2L63.05-4.2Q61.8-2.95 60.3-1.8 58.8-0.65 57 0.35ZM88.64 0.2L88.64 0.2Q86.39 0.2 84.87-1.65 83.34-3.5 83.34-6.6L83.34-6.6Q83.34-8.3 83.74-10.25 84.14-12.2 84.54-13.95L84.54-13.95Q84.89-15.25 85.12-16.38 85.34-17.5 85.34-18.2L85.34-18.2Q85.34-19.1 84.97-19.5 84.59-19.9 84.09-19.9L84.09-19.9Q83.59-19.9 83.09-19.58 82.59-19.25 82.29-18.6L82.29-18.6 81.89-18.75Q81.89-20.8 82.89-22.25 83.89-23.7 85.44-24.45 86.99-25.2 88.59-25.2L88.59-25.2Q89.89-25.2 91.09-24.68 92.29-24.15 93.07-23.05 93.84-21.95 93.84-20.3L93.84-20.3Q93.84-19.3 93.57-17.9 93.29-16.5 92.94-15L92.94-15Q92.59-13.45 92.27-11.88 91.94-10.3 91.94-9.1L91.94-9.1Q91.94-8 92.29-7.3 92.64-6.6 93.34-6.6L93.34-6.6Q94.64-6.6 96.27-9 97.89-11.4 98.89-15.45L98.89-15.45Q99.09-16.25 99.24-17.15 99.39-18.05 99.39-19L99.39-19Q99.39-19.75 99.29-20.53 99.19-21.3 98.99-22.1L98.99-22.1 98.99-22.45Q99.79-23.8 101.07-24.5 102.34-25.2 103.64-25.2L103.64-25.2Q105.39-25.2 106.79-24 108.19-22.8 108.19-20.5L108.19-20.5Q108.19-19.15 107.69-17.38 107.19-15.6 106.59-13.7L106.59-13.7Q105.99-11.85 105.49-10.05 104.99-8.25 104.99-6.85L104.99-6.85Q104.99-4.8 106.44-4.8L106.44-4.8Q106.84-4.8 107.42-5.03 107.99-5.25 108.49-5.95L108.49-5.95 108.84-5.85Q108.84-4.05 107.87-2.68 106.89-1.3 105.39-0.55 103.89 0.2 102.29 0.2L102.29 0.2Q100.24 0.2 98.62-1.3 96.99-2.8 96.99-6.2L96.99-6.2 96.99-6.3Q94.94-2.8 92.74-1.3 90.54 0.2 88.64 0.2ZM129.64 0.25L129.64 0.25Q127.89 0.25 126.59-0.9 125.29-2.05 125.29-4.65L125.29-4.65Q125.29-4.9 125.29-5.15 125.29-5.4 125.34-5.65L125.34-5.65Q123.84-2.65 121.97-1.23 120.09 0.2 118.19 0.2L118.19 0.2Q116.44 0.2 114.89-1.03 113.34-2.25 112.39-4.65 111.44-7.05 111.44-10.45L111.44-10.45Q111.44-13.95 112.42-16.7 113.39-19.45 114.99-21.35 116.59-23.25 118.49-24.23 120.39-25.2 122.19-25.2L122.19-25.2Q124.19-25.2 125.79-23.98 127.39-22.75 127.99-20.1L127.99-20.1Q128.14-20.95 128.22-21.65 128.29-22.35 128.29-22.6L128.29-22.6Q128.34-23.95 129.67-24.6 130.99-25.25 132.59-25.25L132.59-25.25Q133.99-25.25 135.24-24.7 136.49-24.15 136.94-22.85L136.94-22.85 137.04-22.55Q136.44-21.2 135.84-19.3 135.24-17.4 134.74-15.33 134.24-13.25 133.94-11.28 133.64-9.3 133.64-7.8L133.64-7.8Q133.64-6.15 133.99-5.53 134.34-4.9 134.84-4.9L134.84-4.9Q135.69-4.9 136.39-6.1L136.39-6.1 136.79-5.9Q136.79-4.2 135.69-2.8 134.59-1.4 132.94-0.58 131.29 0.25 129.64 0.25ZM121.49-6.1L121.49-6.1Q122.79-6.1 124.37-8.43 125.94-10.75 127.09-15.1L127.09-15.1Q127.19-15.55 127.29-15.98 127.39-16.4 127.44-16.8L127.44-16.8Q126.64-18.65 125.77-19.43 124.89-20.2 124.04-20.2L124.04-20.2Q122.79-20.2 121.72-18.88 120.64-17.55 119.97-15.55 119.29-13.55 119.29-11.55L119.29-11.55Q119.29-8.8 119.92-7.45 120.54-6.1 121.49-6.1ZM145.34 0.2L145.34 0.2Q143.99 0.2 142.71-0.48 141.44-1.15 140.64-2.65 139.84-4.15 139.84-6.5L139.84-6.5Q139.84-8.6 140.41-11.43 140.99-14.25 141.71-17.3 142.44-20.35 142.99-23.25 143.54-26.15 143.49-28.4L143.49-28.4Q143.49-30.55 142.99-31.45L142.99-31.45 142.94-31.6Q143.49-33.2 144.89-34.1 146.29-35 147.84-35L147.84-35Q149.59-35 150.96-33.68 152.34-32.35 152.34-29.25L152.34-29.25Q152.34-27.6 151.94-25.33 151.54-23.05 150.99-20.48 150.44-17.9 149.86-15.4 149.29-12.9 148.89-10.8 148.49-8.7 148.49-7.35L148.49-7.35Q148.49-5.95 148.89-5.43 149.29-4.9 149.79-4.9L149.79-4.9Q150.34-4.9 150.84-5.33 151.34-5.75 151.49-6.1L151.49-6.1 151.89-6Q151.84-4.2 150.86-2.8 149.89-1.4 148.41-0.6 146.94 0.2 145.34 0.2ZM164.34-26.75L164.34-26.75Q162.34-26.75 161.06-27.98 159.79-29.2 159.79-31.05L159.79-31.05Q159.79-33.05 161.29-34.5 162.79-35.95 164.94-35.95L164.94-35.95Q166.94-35.95 168.21-34.7 169.49-33.45 169.49-31.6L169.49-31.6Q169.49-29.6 167.99-28.18 166.49-26.75 164.34-26.75ZM160.84 0.2L160.84 0.2Q158.89 0.2 157.34-1.18 155.79-2.55 155.79-5.6L155.79-5.6Q155.79-7.35 156.26-8.88 156.74-10.4 157.36-11.85 157.99-13.3 158.46-14.68 158.94-16.05 158.94-17.4L158.94-17.4Q158.94-18.6 158.54-19.13 158.14-19.65 157.59-19.65L157.59-19.65Q156.74-19.65 155.94-18.55L155.94-18.55 155.59-18.75Q155.79-20.75 156.86-22.18 157.94-23.6 159.51-24.4 161.09-25.2 162.64-25.2L162.64-25.2Q164.54-25.2 165.94-23.98 167.34-22.75 167.34-20L167.34-20Q167.34-18.35 166.86-16.53 166.39-14.7 165.76-12.9 165.14-11.1 164.66-9.55 164.19-8 164.19-6.9L164.19-6.9Q164.19-5.95 164.56-5.55 164.94-5.15 165.39-5.15L165.39-5.15Q165.84-5.15 166.26-5.43 166.69-5.7 166.89-6.05L166.89-6.05 167.24-5.95Q167.24-4.1 166.26-2.73 165.29-1.35 163.84-0.58 162.39 0.2 160.84 0.2ZM176.53 0.35L176.53 0.35Q174.58 0.25 173.16-1.03 171.73-2.3 171.18-5.5L171.18-5.5Q173.58-6.25 175.96-8.33 178.33-10.4 180.66-13.13 182.98-15.85 185.23-18.45L185.23-18.45Q184.43-18.95 183.68-19.15 182.93-19.35 182.28-19.35L182.28-19.35Q180.93-19.35 180.11-18.63 179.28-17.9 179.28-16.7L179.28-16.7Q179.28-15.6 180.08-14.2L180.08-14.2Q179.48-14.1 178.93-14.05 178.38-14 177.93-14L177.93-14Q174.78-14 173.28-15.65 171.78-17.3 171.78-19.3L171.78-19.3Q171.78-20.75 172.51-22.13 173.23-23.5 174.68-24.38 176.13-25.25 178.18-25.25L178.18-25.25Q180.08-25.25 182.46-24.33 184.83-23.4 187.68-21.2L187.68-21.2Q189.13-22.75 190.51-23.95 191.88-25.15 193.28-25.8L193.28-25.8Q196.03-25.35 197.21-23.88 198.38-22.4 198.38-20.75L198.38-20.75Q198.38-20.45 198.36-20.2 198.33-19.95 198.28-19.7L198.28-19.7Q195.23-18.45 193.06-16.38 190.88-14.3 189.03-11.83 187.18-9.35 184.98-6.8L184.98-6.8Q185.88-6.05 186.73-5.73 187.58-5.4 188.28-5.4L188.28-5.4Q189.63-5.4 190.48-6.33 191.33-7.25 191.33-8.5L191.33-8.5Q191.33-8.9 191.26-9.3 191.18-9.7 190.93-10.1L190.93-10.1Q191.53-10.2 192.11-10.28 192.68-10.35 193.23-10.35L193.23-10.35Q196.03-10.35 197.33-8.93 198.63-7.5 198.63-5.65L198.63-5.65Q198.63-4.25 197.88-2.85 197.13-1.45 195.68-0.55 194.23 0.35 192.18 0.35L192.18 0.35Q190.28 0.35 187.86-0.7 185.43-1.75 182.58-4.2L182.58-4.2Q181.33-2.95 179.83-1.8 178.33-0.65 176.53 0.35ZM212.28 0.35L212.28 0.35Q208.63 0.35 206.23-1.13 203.83-2.6 202.63-5.03 201.43-7.45 201.43-10.25L201.43-10.25Q201.43-12.9 202.46-15.58 203.48-18.25 205.46-20.45 207.43-22.65 210.26-24 213.08-25.35 216.63-25.35L216.63-25.35Q221.03-25.35 223.06-23.38 225.08-21.4 225.08-18.6L225.08-18.6Q225.08-16.2 223.81-14.18 222.53-12.15 220.43-10.93 218.33-9.7 215.83-9.7L215.83-9.7Q214.53-9.7 213.18-10.1 211.83-10.5 210.53-11.35L210.53-11.35Q210.78-8.25 212.33-6.85 213.88-5.45 216.03-5.45L216.03-5.45Q217.53-5.45 219.03-6.03 220.53-6.6 221.81-7.53 223.08-8.45 223.78-9.5L223.78-9.5 224.13-9.25Q224.13-6.65 223.06-4.83 221.98-3 220.23-1.85 218.48-0.7 216.41-0.18 214.33 0.35 212.28 0.35ZM213.43-13.15L213.43-13.15Q215.03-13.15 216.03-14.08 217.03-15 217.53-16.25 218.03-17.5 218.03-18.45L218.03-18.45Q218.03-19.6 217.38-20.38 216.73-21.15 215.58-21.15L215.58-21.15Q214.68-21.15 213.61-20.5 212.53-19.85 211.68-18.28 210.83-16.7 210.58-13.9L210.58-13.9Q212.18-13.15 213.43-13.15ZM231.93 0.2L231.93 0.2Q230.13 0.2 228.73-1.38 227.33-2.95 227.33-6.3L227.33-6.3Q227.33-8.65 227.95-11 228.58-13.35 229.23-15.3L229.23-15.3Q230.23-18.5 230.98-21.2 231.73-23.9 231.73-26.35L231.73-26.35Q231.73-28.05 231.35-28.7 230.98-29.35 230.38-29.35L230.38-29.35Q229.73-29.35 228.95-28.65 228.18-27.95 227.43-26.5L227.43-26.5 227.08-26.6Q227.18-29.5 228.33-31.6 229.48-33.7 231.23-34.85 232.98-36 234.83-36L234.83-36Q236.93-36 238.43-34.33 239.93-32.65 239.93-28.55L239.93-28.55Q239.93-26.4 239.5-24.05 239.08-21.7 238.53-19.35L238.53-19.35Q240.23-20.05 242.13-20.35 244.03-20.65 246.18-20.65L246.18-20.65 247.48-20.65Q248.13-23.15 248.6-25.58 249.08-28 249.08-30.1L249.08-30.1Q249.08-30.85 249-31.5 248.93-32.15 248.83-32.75L248.83-32.75 248.83-33.15Q249.58-34.5 251-35.3 252.43-36.1 253.88-36.1L253.88-36.1Q255.53-36.1 256.78-35.02 258.03-33.95 258.03-31.6L258.03-31.6Q258.03-29.85 257.35-27.1 256.68-24.35 255.83-21.45L255.83-21.45Q254.83-17.9 254-14.58 253.18-11.25 253.18-8.95L253.18-8.95Q253.18-7.4 253.68-6.5 254.18-5.6 255.28-5.6L255.28-5.6Q256.78-5.6 257.53-7.05L257.53-7.05 257.83-6.9Q257.78-4.8 256.68-3.2 255.58-1.6 253.95-0.7 252.33 0.2 250.63 0.2L250.63 0.2Q249.13 0.2 247.8-0.58 246.48-1.35 245.65-3 244.83-4.65 244.83-7.3L244.83-7.3Q244.83-9.05 245.2-11.13 245.58-13.2 246.08-15.35L246.08-15.35Q243.78-15.5 241.58-15.5L241.58-15.5Q240.48-15.5 239.48-15.45 238.48-15.4 237.58-15.3L237.58-15.3Q237.13-13.3 236.8-11.38 236.48-9.45 236.48-7.65L236.48-7.65Q236.48-6.65 236.6-5.68 236.73-4.7 237.03-3.8L237.03-3.8Q236.23-1.85 234.8-0.83 233.38 0.2 231.93 0.2ZM266.93 0.2L266.93 0.2Q264.68 0.2 263.15-1.65 261.63-3.5 261.63-6.6L261.63-6.6Q261.63-8.3 262.03-10.25 262.43-12.2 262.83-13.95L262.83-13.95Q263.18-15.25 263.4-16.38 263.63-17.5 263.63-18.2L263.63-18.2Q263.63-19.1 263.25-19.5 262.88-19.9 262.38-19.9L262.38-19.9Q261.88-19.9 261.38-19.58 260.88-19.25 260.58-18.6L260.58-18.6 260.18-18.75Q260.18-20.8 261.18-22.25 262.18-23.7 263.73-24.45 265.28-25.2 266.88-25.2L266.88-25.2Q268.18-25.2 269.38-24.68 270.58-24.15 271.35-23.05 272.13-21.95 272.13-20.3L272.13-20.3Q272.13-19.3 271.85-17.9 271.58-16.5 271.23-15L271.23-15Q270.88-13.45 270.55-11.88 270.23-10.3 270.23-9.1L270.23-9.1Q270.23-8 270.58-7.3 270.93-6.6 271.63-6.6L271.63-6.6Q272.93-6.6 274.55-9 276.18-11.4 277.18-15.45L277.18-15.45Q277.38-16.25 277.53-17.15 277.68-18.05 277.68-19L277.68-19Q277.68-19.75 277.58-20.53 277.48-21.3 277.28-22.1L277.28-22.1 277.28-22.45Q278.08-23.8 279.35-24.5 280.63-25.2 281.93-25.2L281.93-25.2Q283.68-25.2 285.08-24 286.48-22.8 286.48-20.5L286.48-20.5Q286.48-19.15 285.98-17.38 285.48-15.6 284.88-13.7L284.88-13.7Q284.28-11.85 283.78-10.05 283.28-8.25 283.28-6.85L283.28-6.85Q283.28-4.8 284.73-4.8L284.73-4.8Q285.13-4.8 285.7-5.03 286.28-5.25 286.78-5.95L286.78-5.95 287.13-5.85Q287.13-4.05 286.15-2.68 285.18-1.3 283.68-0.55 282.18 0.2 280.58 0.2L280.58 0.2Q278.53 0.2 276.9-1.3 275.28-2.8 275.28-6.2L275.28-6.2 275.28-6.3Q273.23-2.8 271.03-1.3 268.83 0.2 266.93 0.2ZM302.87 0.2L302.87 0.2Q300.87 0.2 299.22-0.68 297.57-1.55 296.52-3.25L296.52-3.25Q296.47-2.3 295.82-1.5 295.17-0.7 293.37-0.7L293.37-0.7Q291.37-0.7 290.42-1.8 289.47-2.9 289.47-4.7L289.47-4.7Q289.47-5.8 289.77-7.88 290.07-9.95 290.5-12.55 290.92-15.15 291.35-17.95 291.77-20.75 292.07-23.4 292.37-26.05 292.37-28.15L292.37-28.15Q292.37-29.55 292.22-30.6 292.07-31.65 291.67-32.25L291.67-32.25 291.67-32.55Q292.82-33.8 294.07-34.43 295.32-35.05 296.47-35.05L296.47-35.05Q298.17-35.05 299.37-33.7 300.57-32.35 300.57-29.4L300.57-29.4Q300.57-27.95 300.27-25.33 299.97-22.7 299.52-20.1L299.52-20.1Q301.32-22.65 303.35-24 305.37-25.35 307.27-25.35L307.27-25.35Q309.82-25.35 311.62-22.93 313.42-20.5 313.42-15.6L313.42-15.6Q313.42-12.7 312.75-9.88 312.07-7.05 310.72-4.78 309.37-2.5 307.4-1.15 305.42 0.2 302.87 0.2ZM300.37-4.85L300.37-4.85Q301.97-4.85 303.1-6.25 304.22-7.65 304.8-9.83 305.37-12 305.37-14.3L305.37-14.3Q305.37-15.8 305.12-17.18 304.87-18.55 304.37-19.43 303.87-20.3 303.07-20.3L303.07-20.3Q301.67-20.3 299.9-17.03 298.12-13.75 297.12-7.75L297.12-7.75Q298.02-4.85 300.37-4.85Z" opacity="1" transform="matrix(1,0,0,1,0,0)" fill="#ed2647" class="wordmark-text-0" data-fill-palette-color="primary" id="text-0"></path></svg></g></svg></g></svg></g></svg></g><g transform="matrix(1,0,0,1,406.44437609300894,0)"><svg viewBox="0 0 49.24289455774649 63.951811113956474" height="63.951811113956474" width="49.24289455774649"><g><svg xmlns="http://www.w3.org/2000/svg" xmlns:xlink="http://www.w3.org/1999/xlink" version="1.1" x="0" y="0" viewBox="15.299999999999999 5.000000000000005 69.30000000000001 90" enable-background="new 0 0 100 100" xml:space="preserve" height="63.951811113956474" width="49.24289455774649" class="icon-icon-0" data-fill-palette-color="accent" id="icon-0"><path d="M35.6 86.9c0 4.5-3.6 8.1-8.1 8.1-4.5 0-8.1-3.6-8.1-8.1 0-4.5 3.6-8.1 8.1-8.1 1.4 0 2.7 0.4 3.9 1 0.1-0.1 0.2-0.2 0.4-0.1 0.1 0.1 0.2 0.2 0.1 0.4l0 0C34.1 81.5 35.6 84 35.6 86.9zM27.5 45.9c0-3.3-2.7-6.1-6.1-6.1-3.3 0-6.1 2.7-6.1 6.1 0 3.3 2.7 6.1 6.1 6.1C24.8 52 27.5 49.2 27.5 45.9zM34.8 19.1c0.8 0 1.5-0.1 2.2-0.4 0 0 0 0 0 0.1l0 0.1c0 0.1 0.1 0.2 0.3 0.2 0 0 0.1 0 0.1 0 0.1-0.1 0.2-0.2 0.2-0.4l0-0.1c0 0 0 0 0 0 2.6-1.1 4.4-3.6 4.4-6.5 0-3.9-3.2-7.1-7.1-7.1s-7.1 3.2-7.1 7.1S30.9 19.1 34.8 19.1zM79.6 5.8c-2.8 0-5.1 2.3-5.1 5.1 0 1.5 0.7 2.8 1.7 3.8-0.1 0-0.2 0-0.3 0.1l-0.1 0.1c-0.1 0.1-0.1 0.3 0 0.4 0.1 0 0.1 0.1 0.2 0.1 0.1 0 0.2 0 0.2-0.1l0.1-0.1c0.1-0.1 0.1-0.2 0-0.3 0.9 0.7 2 1.2 3.2 1.2 2.8 0 5.1-2.3 5.1-5.1S82.4 5.8 79.6 5.8zM78.6 33.2c-2.2 0-4 1.8-4 4 0 2.2 1.8 4 4 4s4-1.8 4-4C82.7 35 80.8 33.2 78.6 33.2zM65.4 62.9c-1.5 0-2.9 0.5-4.1 1.3l-0.1-0.1C61.1 64 61 64 60.8 64.1c-0.1 0.1-0.1 0.3-0.1 0.4l0.1 0.1c-1.6 1.3-2.5 3.2-2.5 5.4 0 3.9 3.2 7.1 7.1 7.1 3.9 0 7.1-3.2 7.1-7.1S69.3 62.9 65.4 62.9zM59.1 47.5c0-6.1-5-11.1-11.1-11.1-1.3 0-2.6 0.2-3.7 0.7 0 0-0.1 0-0.1 0 0 0-0.1 0-0.1 0.1-4.2 1.6-7.1 5.6-7.1 10.4 0 4.2 2.4 7.9 5.9 9.8 0 0.1 0 0.2 0.2 0.3 0 0 0.1 0 0.1 0 0.1 0 0.1 0 0.2-0.1 1.5 0.7 3.1 1.1 4.8 1.1C54.2 58.6 59.1 53.6 59.1 47.5zM35.5 46.8c-0.2 0-0.3 0.1-0.3 0.3 0 0.2 0.1 0.3 0.3 0.3l0.1 0c0 0 0 0 0 0 0.2 0 0.3-0.1 0.3-0.3 0-0.2-0.1-0.3-0.3-0.3L35.5 46.8zM30.2 46.7c-0.1 0-0.3 0.1-0.3 0.3 0 0.2 0.1 0.3 0.3 0.3l0.1 0c0 0 0 0 0 0 0.2 0 0.3-0.1 0.3-0.3 0-0.2-0.1-0.3-0.3-0.3L30.2 46.7zM32.1 47.3c0.2 0 0.3-0.1 0.3-0.3 0-0.2-0.1-0.3-0.3-0.3l-0.1 0c-0.2 0-0.3 0.1-0.3 0.3 0 0.2 0.1 0.3 0.3 0.3L32.1 47.3C32.1 47.3 32.1 47.3 32.1 47.3zM33.8 47.3l0.1 0c0 0 0 0 0 0 0.2 0 0.3-0.1 0.3-0.3 0-0.2-0.1-0.3-0.3-0.3l-0.1 0c-0.1 0-0.3 0.1-0.3 0.3C33.5 47.2 33.6 47.3 33.8 47.3zM28.5 46.6c-0.2 0-0.3 0.1-0.3 0.3 0 0.2 0.1 0.3 0.3 0.3l0.1 0c0 0 0 0 0 0 0.2 0 0.3-0.1 0.3-0.3 0-0.2-0.1-0.3-0.3-0.3L28.5 46.6zM38.3 66.7c-0.1-0.1-0.3 0-0.4 0.1l-0.1 0.1c-0.1 0.1 0 0.3 0.1 0.4 0 0 0.1 0 0.1 0 0.1 0 0.2-0.1 0.3-0.2l0.1-0.1C38.5 66.9 38.4 66.7 38.3 66.7zM39.9 63.4c-0.1-0.1-0.3 0-0.4 0.1l-0.1 0.1c-0.1 0.1 0 0.3 0.1 0.4 0 0 0.1 0 0.1 0 0.1 0 0.2-0.1 0.3-0.2l0.1-0.1C40.1 63.7 40.1 63.5 39.9 63.4zM39.1 65.1c-0.1-0.1-0.3 0-0.4 0.1l-0.1 0.1c-0.1 0.1 0 0.3 0.1 0.4 0 0 0.1 0 0.1 0 0.1 0 0.2-0.1 0.3-0.2l0.1-0.1C39.3 65.3 39.3 65.1 39.1 65.1zM41.6 60.2c-0.1-0.1-0.3 0-0.4 0.1l-0.1 0.1c-0.1 0.1 0 0.3 0.1 0.4 0 0 0.1 0 0.1 0 0.1 0 0.2-0.1 0.3-0.2l0.1-0.1C41.8 60.4 41.7 60.2 41.6 60.2zM42.4 58.5c-0.1-0.1-0.3 0-0.4 0.1L42 58.8c-0.1 0.1 0 0.3 0.1 0.4 0 0 0.1 0 0.1 0 0.1 0 0.2-0.1 0.3-0.2l0.1-0.1C42.6 58.8 42.5 58.6 42.4 58.5zM40.8 61.8c-0.1-0.1-0.3 0-0.4 0.1L40.3 62c-0.1 0.1 0 0.3 0.1 0.4 0 0 0.1 0 0.1 0 0.1 0 0.2-0.1 0.3-0.2l0.1-0.1C41 62 40.9 61.9 40.8 61.8zM37.5 68.3c-0.1-0.1-0.3 0-0.4 0.1L37 68.6c-0.1 0.1 0 0.3 0.1 0.4 0 0 0.1 0 0.1 0 0.1 0 0.2-0.1 0.3-0.2l0.1-0.1C37.7 68.5 37.6 68.4 37.5 68.3zM33.4 76.4c-0.1-0.1-0.3 0-0.4 0.1l-0.1 0.1c-0.1 0.1 0 0.3 0.1 0.4 0 0 0.1 0 0.1 0 0.1 0 0.2-0.1 0.3-0.2l0.1-0.1C33.6 76.7 33.5 76.5 33.4 76.4zM36.7 69.9c-0.1-0.1-0.3 0-0.4 0.1l-0.1 0.1c-0.1 0.1 0 0.3 0.1 0.4 0 0 0.1 0 0.1 0 0.1 0 0.2-0.1 0.3-0.2l0.1-0.1C36.8 70.2 36.8 70 36.7 69.9zM33.9 75.4c0 0 0.1 0 0.1 0 0.1 0 0.2-0.1 0.3-0.2l0.1-0.1c0.1-0.1 0-0.3-0.1-0.4-0.1-0.1-0.3 0-0.4 0.1l-0.1 0.1C33.7 75.2 33.7 75.4 33.9 75.4zM32.2 78.7c0 0 0.1 0 0.1 0 0.1 0 0.2-0.1 0.3-0.2l0.1-0.1c0.1-0.1 0-0.3-0.1-0.4-0.1-0.1-0.3 0-0.4 0.1l-0.1 0.1C32 78.4 32.1 78.6 32.2 78.7zM34.6 73.3l-0.1 0.1c-0.1 0.1 0 0.3 0.1 0.4 0 0 0.1 0 0.1 0 0.1 0 0.2-0.1 0.3-0.2l0.1-0.1c0.1-0.1 0-0.3-0.1-0.4C34.9 73.1 34.7 73.2 34.6 73.3zM35.8 71.6c-0.1-0.1-0.3 0-0.4 0.1l-0.1 0.1c-0.1 0.1 0 0.3 0.1 0.4 0 0 0.1 0 0.1 0 0.1 0 0.2-0.1 0.3-0.2l0.1-0.1C36 71.8 36 71.6 35.8 71.6zM58.7 61.3c-0.1 0.1-0.1 0.3-0.1 0.4l0.1 0.1c0.1 0.1 0.1 0.1 0.2 0.1 0.1 0 0.1 0 0.2-0.1 0.1-0.1 0.1-0.3 0.1-0.4l-0.1-0.1C59 61.2 58.8 61.2 58.7 61.3zM58 59.9c-0.1-0.1-0.3-0.1-0.4-0.1-0.1 0.1-0.1 0.3 0 0.4l0.1 0.1c0.1 0.1 0.1 0.1 0.2 0.1 0.1 0 0.1 0 0.2-0.1 0.1-0.1 0.1-0.3 0-0.4L58 59.9zM60.1 62.7c-0.1-0.1-0.3-0.1-0.4-0.1-0.1 0.1-0.1 0.3-0.1 0.4l0.1 0.1c0.1 0.1 0.1 0.1 0.2 0.1 0.1 0 0.1 0 0.2-0.1 0.1-0.1 0.1-0.3 0.1-0.4L60.1 62.7zM56.9 58.5c-0.1-0.1-0.3-0.1-0.4-0.1-0.1 0.1-0.1 0.3-0.1 0.4l0.1 0.1c0.1 0.1 0.1 0.1 0.2 0.1 0.1 0 0.1 0 0.2-0.1 0.1-0.1 0.1-0.3 0.1-0.4L56.9 58.5zM55.8 57.1c-0.1-0.1-0.3-0.1-0.4-0.1-0.1 0.1-0.1 0.3-0.1 0.4l0.1 0.1c0.1 0.1 0.1 0.1 0.2 0.1 0.1 0 0.1 0 0.2-0.1 0.1-0.1 0.1-0.3 0.1-0.4L55.8 57.1zM70 40.4C70.1 40.4 70.1 40.4 70 40.4l0.2-0.1c0.1 0 0.2-0.2 0.2-0.4 0-0.1-0.2-0.2-0.4-0.2l-0.1 0c-0.1 0-0.2 0.2-0.2 0.4C69.8 40.3 69.9 40.4 70 40.4zM68.1 40.8c0 0.1 0.1 0.2 0.3 0.2 0 0 0.1 0 0.1 0l0.1 0c0.1 0 0.2-0.2 0.2-0.4 0-0.1-0.2-0.2-0.4-0.2l-0.1 0C68.1 40.5 68 40.6 68.1 40.8zM66.6 41.5C66.7 41.5 66.7 41.5 66.6 41.5l0.2-0.1c0.1 0 0.2-0.2 0.2-0.4 0-0.1-0.2-0.2-0.4-0.2l-0.1 0c-0.1 0-0.2 0.2-0.2 0.4C66.4 41.5 66.5 41.5 66.6 41.5zM61.5 43.2C61.6 43.2 61.6 43.2 61.5 43.2l0.2-0.1c0.1 0 0.2-0.2 0.2-0.4 0-0.1-0.2-0.2-0.4-0.2l-0.1 0c-0.1 0-0.2 0.2-0.2 0.4C61.3 43.2 61.4 43.2 61.5 43.2zM73.5 38.7l-0.1 0c-0.1 0-0.2 0.2-0.2 0.4 0 0.1 0.1 0.2 0.3 0.2 0 0 0.1 0 0.1 0l0.1 0c0.1 0 0.2-0.2 0.2-0.4C73.8 38.7 73.6 38.6 73.5 38.7zM71.5 39.6c0 0.1 0.1 0.2 0.3 0.2 0 0 0.1 0 0.1 0l0.1 0c0.1 0 0.2-0.2 0.2-0.4 0-0.1-0.2-0.2-0.4-0.2l-0.1 0C71.5 39.3 71.4 39.5 71.5 39.6zM63.3 42.1l-0.1 0c-0.1 0-0.2 0.2-0.2 0.4 0 0.1 0.1 0.2 0.3 0.2 0 0 0.1 0 0.1 0l0.1 0c0.1 0 0.2-0.2 0.2-0.4C63.6 42.1 63.4 42 63.3 42.1zM59.9 43.2l-0.1 0c-0.1 0-0.2 0.2-0.2 0.4 0 0.1 0.1 0.2 0.3 0.2 0 0 0.1 0 0.1 0l0.1 0c0.1 0 0.2-0.2 0.2-0.4C60.2 43.3 60 43.2 59.9 43.2zM64.7 41.9c0 0.1 0.1 0.2 0.3 0.2 0 0 0.1 0 0.1 0l0.1 0c0.1 0 0.2-0.2 0.2-0.4 0-0.1-0.2-0.2-0.4-0.2l-0.1 0C64.7 41.6 64.6 41.8 64.7 41.9zM75.1 16.5l0.1-0.1c0.1-0.1 0.1-0.3 0-0.4-0.1-0.1-0.3-0.1-0.4 0l-0.1 0.1c-0.1 0.1-0.1 0.3 0 0.4 0.1 0 0.1 0.1 0.2 0.1C74.9 16.6 75 16.6 75.1 16.5zM63.2 30.2c0.1 0 0.2 0 0.2-0.1l0.1-0.1c0.1-0.1 0.1-0.3 0-0.4-0.1-0.1-0.3-0.1-0.4 0L63 29.7c-0.1 0.1-0.1 0.3 0 0.4C63 30.1 63.1 30.2 63.2 30.2zM73.6 17.4l-0.1 0.1c-0.1 0.1-0.1 0.3 0 0.4 0.1 0 0.1 0.1 0.2 0.1 0.1 0 0.2 0 0.2-0.1l0.1-0.1c0.1-0.1 0.1-0.3 0-0.4S73.7 17.3 73.6 17.4zM56.2 38.3c0.1 0 0.2 0 0.2-0.1l0.1-0.1c0.1-0.1 0.1-0.3 0-0.4-0.1-0.1-0.3-0.1-0.4 0l-0.1 0.1c-0.1 0.1-0.1 0.3 0 0.4C56 38.3 56.1 38.3 56.2 38.3zM59.7 34.2c0.1 0 0.2 0 0.2-0.1L60 34c0.1-0.1 0.1-0.3 0-0.4-0.1-0.1-0.3-0.1-0.4 0l-0.1 0.1c-0.1 0.1-0.1 0.3 0 0.4C59.5 34.2 59.6 34.2 59.7 34.2zM57.3 37c0.1 0 0.2 0 0.2-0.1l0.1-0.1c0.1-0.1 0.1-0.3 0-0.4-0.1-0.1-0.3-0.1-0.4 0l-0.1 0.1c-0.1 0.1-0.1 0.3 0 0.4C57.2 36.9 57.3 37 57.3 37zM60.8 32.9c0.1 0 0.2 0 0.2-0.1l0.1-0.1c0.1-0.1 0.1-0.3 0-0.4-0.1-0.1-0.3-0.1-0.4 0l-0.1 0.1c-0.1 0.1-0.1 0.3 0 0.4C60.7 32.9 60.8 32.9 60.8 32.9zM69 23.4c0.1 0 0.2 0 0.2-0.1l0.1-0.1c0.1-0.1 0.1-0.3 0-0.4-0.1-0.1-0.3-0.1-0.4 0l-0.1 0.1c-0.1 0.1-0.1 0.3 0 0.4C68.9 23.4 69 23.4 69 23.4zM62 31.5c0.1 0 0.2 0 0.2-0.1l0.1-0.1c0.1-0.1 0.1-0.3 0-0.4-0.1-0.1-0.3-0.1-0.4 0l-0.1 0.1c-0.1 0.1-0.1 0.3 0 0.4C61.9 31.5 61.9 31.5 62 31.5zM64.3 28.8c0.1 0 0.2 0 0.2-0.1l0.1-0.1c0.1-0.1 0.1-0.3 0-0.4-0.1-0.1-0.3-0.1-0.4 0l-0.1 0.1c-0.1 0.1-0.1 0.3 0 0.4C64.2 28.8 64.3 28.8 64.3 28.8zM67.9 24.7c0.1 0 0.2 0 0.2-0.1l0.1-0.1c0.1-0.1 0.1-0.3 0-0.4-0.1-0.1-0.3-0.1-0.4 0l-0.1 0.1c-0.1 0.1-0.1 0.3 0 0.4C67.7 24.7 67.8 24.7 67.9 24.7zM66.7 26.1c0.1 0 0.2 0 0.2-0.1l0.1-0.1c0.1-0.1 0.1-0.3 0-0.4-0.1-0.1-0.3-0.1-0.4 0l-0.1 0.1c-0.1 0.1-0.1 0.3 0 0.4C66.6 26.1 66.6 26.1 66.7 26.1zM72.4 18.7l-0.1 0.1c-0.1 0.1-0.1 0.3 0 0.4 0.1 0 0.1 0.1 0.2 0.1 0.1 0 0.2 0 0.2-0.1l0.1-0.1c0.1-0.1 0.1-0.3 0-0.4C72.7 18.6 72.5 18.6 72.4 18.7zM70.2 22c0.1 0 0.2 0 0.2-0.1l0.1-0.1c0.1-0.1 0.1-0.3 0-0.4-0.1-0.1-0.3-0.1-0.4 0L70 21.6c-0.1 0.1-0.1 0.3 0 0.4C70.1 22 70.1 22 70.2 22zM65.5 27.5c0.1 0 0.2 0 0.2-0.1l0.1-0.1c0.1-0.1 0.1-0.3 0-0.4-0.1-0.1-0.3-0.1-0.4 0L65.3 27c-0.1 0.1-0.1 0.3 0 0.4C65.4 27.4 65.4 27.5 65.5 27.5zM71.4 20.7c0.1 0 0.2 0 0.2-0.1l0.1-0.1c0.1-0.1 0.1-0.3 0-0.4-0.1-0.1-0.3-0.1-0.4 0l-0.1 0.1c-0.1 0.1-0.1 0.3 0 0.4C71.2 20.7 71.3 20.7 71.4 20.7zM58.5 35.6c0.1 0 0.2 0 0.2-0.1l0.1-0.1c0.1-0.1 0.1-0.3 0-0.4s-0.3-0.1-0.4 0l-0.1 0.1c-0.1 0.1-0.1 0.3 0 0.4C58.4 35.6 58.4 35.6 58.5 35.6zM41 28.6c-0.1 0.1-0.2 0.2-0.2 0.4l0 0.1c0 0.1 0.1 0.2 0.3 0.2 0 0 0.1 0 0.1 0 0.1-0.1 0.2-0.2 0.2-0.4l0-0.1C41.3 28.6 41.1 28.6 41 28.6zM41.6 30.3c-0.1 0.1-0.2 0.2-0.2 0.4l0 0.1c0 0.1 0.1 0.2 0.3 0.2 0 0 0.1 0 0.1 0 0.1-0.1 0.2-0.2 0.2-0.4l0-0.1C41.9 30.3 41.8 30.2 41.6 30.3zM42.1 32.5c0 0.1 0.1 0.2 0.3 0.2 0 0 0.1 0 0.1 0 0.1-0.1 0.2-0.2 0.2-0.4l0-0.1c-0.1-0.1-0.2-0.2-0.4-0.2-0.1 0.1-0.2 0.2-0.2 0.4L42.1 32.5zM43.4 35.8c0 0.1 0.1 0.2 0.3 0.2 0 0 0.1 0 0.1 0 0.1-0.1 0.2-0.2 0.2-0.4l0-0.1c-0.1-0.1-0.2-0.2-0.4-0.2-0.1 0.1-0.2 0.2-0.2 0.4L43.4 35.8zM42.8 34.2c0 0.1 0.1 0.2 0.3 0.2 0 0 0.1 0 0.1 0 0.1-0.1 0.2-0.2 0.2-0.4l0-0.1c-0.1-0.1-0.2-0.2-0.4-0.2-0.1 0.1-0.2 0.2-0.2 0.4L42.8 34.2zM39.7 25.2c-0.1 0.1-0.2 0.2-0.2 0.4l0 0.1c0 0.1 0.1 0.2 0.3 0.2 0 0 0.1 0 0.1 0 0.1-0.1 0.2-0.2 0.2-0.4l0-0.1C40 25.3 39.9 25.2 39.7 25.2zM37.9 20.2c-0.1 0.1-0.2 0.2-0.2 0.4l0 0.1c0 0.1 0.1 0.2 0.3 0.2 0 0 0.1 0 0.1 0 0.1-0.1 0.2-0.2 0.2-0.4l0-0.1C38.2 20.2 38 20.1 37.9 20.2zM39.1 23.5c-0.1 0.1-0.2 0.2-0.2 0.4l0 0.1c0 0.1 0.1 0.2 0.3 0.2 0 0 0.1 0 0.1 0 0.1-0.1 0.2-0.2 0.2-0.4l0-0.1C39.4 23.6 39.3 23.5 39.1 23.5zM38.5 21.9c-0.1 0.1-0.2 0.2-0.2 0.4l0 0.1c0 0.1 0.1 0.2 0.3 0.2 0 0 0.1 0 0.1 0 0.1-0.1 0.2-0.2 0.2-0.4l0-0.1C38.8 21.9 38.6 21.8 38.5 21.9zM40.4 26.9c-0.1 0.1-0.2 0.2-0.2 0.4l0 0.1c0 0.1 0.1 0.2 0.3 0.2 0 0 0.1 0 0.1 0 0.1-0.1 0.2-0.2 0.2-0.4l0-0.1C40.7 26.9 40.5 26.9 40.4 26.9z" fill="#ed2647" data-fill-palette-color="accent"></path></svg></g></svg></g></svg></g><defs></defs></svg><rect width="395.52" height="55.507849266164556" fill="none" stroke="none" visibility="hidden"></rect></g></svg></g></svg>