<svg xmlns="http://www.w3.org/2000/svg" version="1.1" xmlns:xlink="http://www.w3.org/1999/xlink" xmlns:svgjs="http://svgjs.dev/svgjs" width="128" height="128" viewBox="0 0 128 128"><g transform="matrix(0.6280487804878049,0,0,0.6280487804878049,23.544353909030995,12.760752631578946)"><svg viewBox="0 0 74 95" data-background-color="#ffffff" preserveAspectRatio="xMidYMid meet" height="164" width="128" xmlns="http://www.w3.org/2000/svg" xmlns:xlink="http://www.w3.org/1999/xlink"><g id="tight-bounds" transform="matrix(1,0,0,1,0.239814999999993,-0.24049999999999727)"><svg viewBox="0 0 73.52037000000001 95.481" height="95.481" width="73.52037000000001"><g><svg viewBox="0 0 73.52037000000001 95.481" height="95.481" width="73.52037000000001"><g><svg viewBox="0 0 73.52037000000001 95.481" height="95.481" width="73.52037000000001"><g id="textblocktransform"><svg viewBox="0 0 73.52037000000001 95.481" height="95.481" width="73.52037000000001" id="textblock"><g><svg viewBox="0 0 73.52037000000001 95.481" height="95.481" width="73.52037000000001"><g><svg viewBox="0 0 73.52037000000001 95.481" height="95.481" width="73.52037000000001"><g><svg xmlns="http://www.w3.org/2000/svg" xmlns:xlink="http://www.w3.org/1999/xlink" version="1.1" x="0" y="0" viewBox="15.299999999999999 5.000000000000005 69.30000000000001 90" enable-background="new 0 0 100 100" xml:space="preserve" height="95.481" width="73.52037000000001" class="icon-icon-0" data-fill-palette-color="accent" id="icon-0"><path d="M35.6 86.9c0 4.5-3.6 8.1-8.1 8.1-4.5 0-8.1-3.6-8.1-8.1 0-4.5 3.6-8.1 8.1-8.1 1.4 0 2.7 0.4 3.9 1 0.1-0.1 0.2-0.2 0.4-0.1 0.1 0.1 0.2 0.2 0.1 0.4l0 0C34.1 81.5 35.6 84 35.6 86.9zM27.5 45.9c0-3.3-2.7-6.1-6.1-6.1-3.3 0-6.1 2.7-6.1 6.1 0 3.3 2.7 6.1 6.1 6.1C24.8 52 27.5 49.2 27.5 45.9zM34.8 19.1c0.8 0 1.5-0.1 2.2-0.4 0 0 0 0 0 0.1l0 0.1c0 0.1 0.1 0.2 0.3 0.2 0 0 0.1 0 0.1 0 0.1-0.1 0.2-0.2 0.2-0.4l0-0.1c0 0 0 0 0 0 2.6-1.1 4.4-3.6 4.4-6.5 0-3.9-3.2-7.1-7.1-7.1s-7.1 3.2-7.1 7.1S30.9 19.1 34.8 19.1zM79.6 5.8c-2.8 0-5.1 2.3-5.1 5.1 0 1.5 0.7 2.8 1.7 3.8-0.1 0-0.2 0-0.3 0.1l-0.1 0.1c-0.1 0.1-0.1 0.3 0 0.4 0.1 0 0.1 0.1 0.2 0.1 0.1 0 0.2 0 0.2-0.1l0.1-0.1c0.1-0.1 0.1-0.2 0-0.3 0.9 0.7 2 1.2 3.2 1.2 2.8 0 5.1-2.3 5.1-5.1S82.4 5.8 79.6 5.8zM78.6 33.2c-2.2 0-4 1.8-4 4 0 2.2 1.8 4 4 4s4-1.8 4-4C82.7 35 80.8 33.2 78.6 33.2zM65.4 62.9c-1.5 0-2.9 0.5-4.1 1.3l-0.1-0.1C61.1 64 61 64 60.8 64.1c-0.1 0.1-0.1 0.3-0.1 0.4l0.1 0.1c-1.6 1.3-2.5 3.2-2.5 5.4 0 3.9 3.2 7.1 7.1 7.1 3.9 0 7.1-3.2 7.1-7.1S69.3 62.9 65.4 62.9zM59.1 47.5c0-6.1-5-11.1-11.1-11.1-1.3 0-2.6 0.2-3.7 0.7 0 0-0.1 0-0.1 0 0 0-0.1 0-0.1 0.1-4.2 1.6-7.1 5.6-7.1 10.4 0 4.2 2.4 7.9 5.9 9.8 0 0.1 0 0.2 0.2 0.3 0 0 0.1 0 0.1 0 0.1 0 0.1 0 0.2-0.1 1.5 0.7 3.1 1.1 4.8 1.1C54.2 58.6 59.1 53.6 59.1 47.5zM35.5 46.8c-0.2 0-0.3 0.1-0.3 0.3 0 0.2 0.1 0.3 0.3 0.3l0.1 0c0 0 0 0 0 0 0.2 0 0.3-0.1 0.3-0.3 0-0.2-0.1-0.3-0.3-0.3L35.5 46.8zM30.2 46.7c-0.1 0-0.3 0.1-0.3 0.3 0 0.2 0.1 0.3 0.3 0.3l0.1 0c0 0 0 0 0 0 0.2 0 0.3-0.1 0.3-0.3 0-0.2-0.1-0.3-0.3-0.3L30.2 46.7zM32.1 47.3c0.2 0 0.3-0.1 0.3-0.3 0-0.2-0.1-0.3-0.3-0.3l-0.1 0c-0.2 0-0.3 0.1-0.3 0.3 0 0.2 0.1 0.3 0.3 0.3L32.1 47.3C32.1 47.3 32.1 47.3 32.1 47.3zM33.8 47.3l0.1 0c0 0 0 0 0 0 0.2 0 0.3-0.1 0.3-0.3 0-0.2-0.1-0.3-0.3-0.3l-0.1 0c-0.1 0-0.3 0.1-0.3 0.3C33.5 47.2 33.6 47.3 33.8 47.3zM28.5 46.6c-0.2 0-0.3 0.1-0.3 0.3 0 0.2 0.1 0.3 0.3 0.3l0.1 0c0 0 0 0 0 0 0.2 0 0.3-0.1 0.3-0.3 0-0.2-0.1-0.3-0.3-0.3L28.5 46.6zM38.3 66.7c-0.1-0.1-0.3 0-0.4 0.1l-0.1 0.1c-0.1 0.1 0 0.3 0.1 0.4 0 0 0.1 0 0.1 0 0.1 0 0.2-0.1 0.3-0.2l0.1-0.1C38.5 66.9 38.4 66.7 38.3 66.7zM39.9 63.4c-0.1-0.1-0.3 0-0.4 0.1l-0.1 0.1c-0.1 0.1 0 0.3 0.1 0.4 0 0 0.1 0 0.1 0 0.1 0 0.2-0.1 0.3-0.2l0.1-0.1C40.1 63.7 40.1 63.5 39.9 63.4zM39.1 65.1c-0.1-0.1-0.3 0-0.4 0.1l-0.1 0.1c-0.1 0.1 0 0.3 0.1 0.4 0 0 0.1 0 0.1 0 0.1 0 0.2-0.1 0.3-0.2l0.1-0.1C39.3 65.3 39.3 65.1 39.1 65.1zM41.6 60.2c-0.1-0.1-0.3 0-0.4 0.1l-0.1 0.1c-0.1 0.1 0 0.3 0.1 0.4 0 0 0.1 0 0.1 0 0.1 0 0.2-0.1 0.3-0.2l0.1-0.1C41.8 60.4 41.7 60.2 41.6 60.2zM42.4 58.5c-0.1-0.1-0.3 0-0.4 0.1L42 58.8c-0.1 0.1 0 0.3 0.1 0.4 0 0 0.1 0 0.1 0 0.1 0 0.2-0.1 0.3-0.2l0.1-0.1C42.6 58.8 42.5 58.6 42.4 58.5zM40.8 61.8c-0.1-0.1-0.3 0-0.4 0.1L40.3 62c-0.1 0.1 0 0.3 0.1 0.4 0 0 0.1 0 0.1 0 0.1 0 0.2-0.1 0.3-0.2l0.1-0.1C41 62 40.9 61.9 40.8 61.8zM37.5 68.3c-0.1-0.1-0.3 0-0.4 0.1L37 68.6c-0.1 0.1 0 0.3 0.1 0.4 0 0 0.1 0 0.1 0 0.1 0 0.2-0.1 0.3-0.2l0.1-0.1C37.7 68.5 37.6 68.4 37.5 68.3zM33.4 76.4c-0.1-0.1-0.3 0-0.4 0.1l-0.1 0.1c-0.1 0.1 0 0.3 0.1 0.4 0 0 0.1 0 0.1 0 0.1 0 0.2-0.1 0.3-0.2l0.1-0.1C33.6 76.7 33.5 76.5 33.4 76.4zM36.7 69.9c-0.1-0.1-0.3 0-0.4 0.1l-0.1 0.1c-0.1 0.1 0 0.3 0.1 0.4 0 0 0.1 0 0.1 0 0.1 0 0.2-0.1 0.3-0.2l0.1-0.1C36.8 70.2 36.8 70 36.7 69.9zM33.9 75.4c0 0 0.1 0 0.1 0 0.1 0 0.2-0.1 0.3-0.2l0.1-0.1c0.1-0.1 0-0.3-0.1-0.4-0.1-0.1-0.3 0-0.4 0.1l-0.1 0.1C33.7 75.2 33.7 75.4 33.9 75.4zM32.2 78.7c0 0 0.1 0 0.1 0 0.1 0 0.2-0.1 0.3-0.2l0.1-0.1c0.1-0.1 0-0.3-0.1-0.4-0.1-0.1-0.3 0-0.4 0.1l-0.1 0.1C32 78.4 32.1 78.6 32.2 78.7zM34.6 73.3l-0.1 0.1c-0.1 0.1 0 0.3 0.1 0.4 0 0 0.1 0 0.1 0 0.1 0 0.2-0.1 0.3-0.2l0.1-0.1c0.1-0.1 0-0.3-0.1-0.4C34.9 73.1 34.7 73.2 34.6 73.3zM35.8 71.6c-0.1-0.1-0.3 0-0.4 0.1l-0.1 0.1c-0.1 0.1 0 0.3 0.1 0.4 0 0 0.1 0 0.1 0 0.1 0 0.2-0.1 0.3-0.2l0.1-0.1C36 71.8 36 71.6 35.8 71.6zM58.7 61.3c-0.1 0.1-0.1 0.3-0.1 0.4l0.1 0.1c0.1 0.1 0.1 0.1 0.2 0.1 0.1 0 0.1 0 0.2-0.1 0.1-0.1 0.1-0.3 0.1-0.4l-0.1-0.1C59 61.2 58.8 61.2 58.7 61.3zM58 59.9c-0.1-0.1-0.3-0.1-0.4-0.1-0.1 0.1-0.1 0.3 0 0.4l0.1 0.1c0.1 0.1 0.1 0.1 0.2 0.1 0.1 0 0.1 0 0.2-0.1 0.1-0.1 0.1-0.3 0-0.4L58 59.9zM60.1 62.7c-0.1-0.1-0.3-0.1-0.4-0.1-0.1 0.1-0.1 0.3-0.1 0.4l0.1 0.1c0.1 0.1 0.1 0.1 0.2 0.1 0.1 0 0.1 0 0.2-0.1 0.1-0.1 0.1-0.3 0.1-0.4L60.1 62.7zM56.9 58.5c-0.1-0.1-0.3-0.1-0.4-0.1-0.1 0.1-0.1 0.3-0.1 0.4l0.1 0.1c0.1 0.1 0.1 0.1 0.2 0.1 0.1 0 0.1 0 0.2-0.1 0.1-0.1 0.1-0.3 0.1-0.4L56.9 58.5zM55.8 57.1c-0.1-0.1-0.3-0.1-0.4-0.1-0.1 0.1-0.1 0.3-0.1 0.4l0.1 0.1c0.1 0.1 0.1 0.1 0.2 0.1 0.1 0 0.1 0 0.2-0.1 0.1-0.1 0.1-0.3 0.1-0.4L55.8 57.1zM70 40.4C70.1 40.4 70.1 40.4 70 40.4l0.2-0.1c0.1 0 0.2-0.2 0.2-0.4 0-0.1-0.2-0.2-0.4-0.2l-0.1 0c-0.1 0-0.2 0.2-0.2 0.4C69.8 40.3 69.9 40.4 70 40.4zM68.1 40.8c0 0.1 0.1 0.2 0.3 0.2 0 0 0.1 0 0.1 0l0.1 0c0.1 0 0.2-0.2 0.2-0.4 0-0.1-0.2-0.2-0.4-0.2l-0.1 0C68.1 40.5 68 40.6 68.1 40.8zM66.6 41.5C66.7 41.5 66.7 41.5 66.6 41.5l0.2-0.1c0.1 0 0.2-0.2 0.2-0.4 0-0.1-0.2-0.2-0.4-0.2l-0.1 0c-0.1 0-0.2 0.2-0.2 0.4C66.4 41.5 66.5 41.5 66.6 41.5zM61.5 43.2C61.6 43.2 61.6 43.2 61.5 43.2l0.2-0.1c0.1 0 0.2-0.2 0.2-0.4 0-0.1-0.2-0.2-0.4-0.2l-0.1 0c-0.1 0-0.2 0.2-0.2 0.4C61.3 43.2 61.4 43.2 61.5 43.2zM73.5 38.7l-0.1 0c-0.1 0-0.2 0.2-0.2 0.4 0 0.1 0.1 0.2 0.3 0.2 0 0 0.1 0 0.1 0l0.1 0c0.1 0 0.2-0.2 0.2-0.4C73.8 38.7 73.6 38.6 73.5 38.7zM71.5 39.6c0 0.1 0.1 0.2 0.3 0.2 0 0 0.1 0 0.1 0l0.1 0c0.1 0 0.2-0.2 0.2-0.4 0-0.1-0.2-0.2-0.4-0.2l-0.1 0C71.5 39.3 71.4 39.5 71.5 39.6zM63.3 42.1l-0.1 0c-0.1 0-0.2 0.2-0.2 0.4 0 0.1 0.1 0.2 0.3 0.2 0 0 0.1 0 0.1 0l0.1 0c0.1 0 0.2-0.2 0.2-0.4C63.6 42.1 63.4 42 63.3 42.1zM59.9 43.2l-0.1 0c-0.1 0-0.2 0.2-0.2 0.4 0 0.1 0.1 0.2 0.3 0.2 0 0 0.1 0 0.1 0l0.1 0c0.1 0 0.2-0.2 0.2-0.4C60.2 43.3 60 43.2 59.9 43.2zM64.7 41.9c0 0.1 0.1 0.2 0.3 0.2 0 0 0.1 0 0.1 0l0.1 0c0.1 0 0.2-0.2 0.2-0.4 0-0.1-0.2-0.2-0.4-0.2l-0.1 0C64.7 41.6 64.6 41.8 64.7 41.9zM75.1 16.5l0.1-0.1c0.1-0.1 0.1-0.3 0-0.4-0.1-0.1-0.3-0.1-0.4 0l-0.1 0.1c-0.1 0.1-0.1 0.3 0 0.4 0.1 0 0.1 0.1 0.2 0.1C74.9 16.6 75 16.6 75.1 16.5zM63.2 30.2c0.1 0 0.2 0 0.2-0.1l0.1-0.1c0.1-0.1 0.1-0.3 0-0.4-0.1-0.1-0.3-0.1-0.4 0L63 29.7c-0.1 0.1-0.1 0.3 0 0.4C63 30.1 63.1 30.2 63.2 30.2zM73.6 17.4l-0.1 0.1c-0.1 0.1-0.1 0.3 0 0.4 0.1 0 0.1 0.1 0.2 0.1 0.1 0 0.2 0 0.2-0.1l0.1-0.1c0.1-0.1 0.1-0.3 0-0.4S73.7 17.3 73.6 17.4zM56.2 38.3c0.1 0 0.2 0 0.2-0.1l0.1-0.1c0.1-0.1 0.1-0.3 0-0.4-0.1-0.1-0.3-0.1-0.4 0l-0.1 0.1c-0.1 0.1-0.1 0.3 0 0.4C56 38.3 56.1 38.3 56.2 38.3zM59.7 34.2c0.1 0 0.2 0 0.2-0.1L60 34c0.1-0.1 0.1-0.3 0-0.4-0.1-0.1-0.3-0.1-0.4 0l-0.1 0.1c-0.1 0.1-0.1 0.3 0 0.4C59.5 34.2 59.6 34.2 59.7 34.2zM57.3 37c0.1 0 0.2 0 0.2-0.1l0.1-0.1c0.1-0.1 0.1-0.3 0-0.4-0.1-0.1-0.3-0.1-0.4 0l-0.1 0.1c-0.1 0.1-0.1 0.3 0 0.4C57.2 36.9 57.3 37 57.3 37zM60.8 32.9c0.1 0 0.2 0 0.2-0.1l0.1-0.1c0.1-0.1 0.1-0.3 0-0.4-0.1-0.1-0.3-0.1-0.4 0l-0.1 0.1c-0.1 0.1-0.1 0.3 0 0.4C60.7 32.9 60.8 32.9 60.8 32.9zM69 23.4c0.1 0 0.2 0 0.2-0.1l0.1-0.1c0.1-0.1 0.1-0.3 0-0.4-0.1-0.1-0.3-0.1-0.4 0l-0.1 0.1c-0.1 0.1-0.1 0.3 0 0.4C68.9 23.4 69 23.4 69 23.4zM62 31.5c0.1 0 0.2 0 0.2-0.1l0.1-0.1c0.1-0.1 0.1-0.3 0-0.4-0.1-0.1-0.3-0.1-0.4 0l-0.1 0.1c-0.1 0.1-0.1 0.3 0 0.4C61.9 31.5 61.9 31.5 62 31.5zM64.3 28.8c0.1 0 0.2 0 0.2-0.1l0.1-0.1c0.1-0.1 0.1-0.3 0-0.4-0.1-0.1-0.3-0.1-0.4 0l-0.1 0.1c-0.1 0.1-0.1 0.3 0 0.4C64.2 28.8 64.3 28.8 64.3 28.8zM67.9 24.7c0.1 0 0.2 0 0.2-0.1l0.1-0.1c0.1-0.1 0.1-0.3 0-0.4-0.1-0.1-0.3-0.1-0.4 0l-0.1 0.1c-0.1 0.1-0.1 0.3 0 0.4C67.7 24.7 67.8 24.7 67.9 24.7zM66.7 26.1c0.1 0 0.2 0 0.2-0.1l0.1-0.1c0.1-0.1 0.1-0.3 0-0.4-0.1-0.1-0.3-0.1-0.4 0l-0.1 0.1c-0.1 0.1-0.1 0.3 0 0.4C66.6 26.1 66.6 26.1 66.7 26.1zM72.4 18.7l-0.1 0.1c-0.1 0.1-0.1 0.3 0 0.4 0.1 0 0.1 0.1 0.2 0.1 0.1 0 0.2 0 0.2-0.1l0.1-0.1c0.1-0.1 0.1-0.3 0-0.4C72.7 18.6 72.5 18.6 72.4 18.7zM70.2 22c0.1 0 0.2 0 0.2-0.1l0.1-0.1c0.1-0.1 0.1-0.3 0-0.4-0.1-0.1-0.3-0.1-0.4 0L70 21.6c-0.1 0.1-0.1 0.3 0 0.4C70.1 22 70.1 22 70.2 22zM65.5 27.5c0.1 0 0.2 0 0.2-0.1l0.1-0.1c0.1-0.1 0.1-0.3 0-0.4-0.1-0.1-0.3-0.1-0.4 0L65.3 27c-0.1 0.1-0.1 0.3 0 0.4C65.4 27.4 65.4 27.5 65.5 27.5zM71.4 20.7c0.1 0 0.2 0 0.2-0.1l0.1-0.1c0.1-0.1 0.1-0.3 0-0.4-0.1-0.1-0.3-0.1-0.4 0l-0.1 0.1c-0.1 0.1-0.1 0.3 0 0.4C71.2 20.7 71.3 20.7 71.4 20.7zM58.5 35.6c0.1 0 0.2 0 0.2-0.1l0.1-0.1c0.1-0.1 0.1-0.3 0-0.4s-0.3-0.1-0.4 0l-0.1 0.1c-0.1 0.1-0.1 0.3 0 0.4C58.4 35.6 58.4 35.6 58.5 35.6zM41 28.6c-0.1 0.1-0.2 0.2-0.2 0.4l0 0.1c0 0.1 0.1 0.2 0.3 0.2 0 0 0.1 0 0.1 0 0.1-0.1 0.2-0.2 0.2-0.4l0-0.1C41.3 28.6 41.1 28.6 41 28.6zM41.6 30.3c-0.1 0.1-0.2 0.2-0.2 0.4l0 0.1c0 0.1 0.1 0.2 0.3 0.2 0 0 0.1 0 0.1 0 0.1-0.1 0.2-0.2 0.2-0.4l0-0.1C41.9 30.3 41.8 30.2 41.6 30.3zM42.1 32.5c0 0.1 0.1 0.2 0.3 0.2 0 0 0.1 0 0.1 0 0.1-0.1 0.2-0.2 0.2-0.4l0-0.1c-0.1-0.1-0.2-0.2-0.4-0.2-0.1 0.1-0.2 0.2-0.2 0.4L42.1 32.5zM43.4 35.8c0 0.1 0.1 0.2 0.3 0.2 0 0 0.1 0 0.1 0 0.1-0.1 0.2-0.2 0.2-0.4l0-0.1c-0.1-0.1-0.2-0.2-0.4-0.2-0.1 0.1-0.2 0.2-0.2 0.4L43.4 35.8zM42.8 34.2c0 0.1 0.1 0.2 0.3 0.2 0 0 0.1 0 0.1 0 0.1-0.1 0.2-0.2 0.2-0.4l0-0.1c-0.1-0.1-0.2-0.2-0.4-0.2-0.1 0.1-0.2 0.2-0.2 0.4L42.8 34.2zM39.7 25.2c-0.1 0.1-0.2 0.2-0.2 0.4l0 0.1c0 0.1 0.1 0.2 0.3 0.2 0 0 0.1 0 0.1 0 0.1-0.1 0.2-0.2 0.2-0.4l0-0.1C40 25.3 39.9 25.2 39.7 25.2zM37.9 20.2c-0.1 0.1-0.2 0.2-0.2 0.4l0 0.1c0 0.1 0.1 0.2 0.3 0.2 0 0 0.1 0 0.1 0 0.1-0.1 0.2-0.2 0.2-0.4l0-0.1C38.2 20.2 38 20.1 37.9 20.2zM39.1 23.5c-0.1 0.1-0.2 0.2-0.2 0.4l0 0.1c0 0.1 0.1 0.2 0.3 0.2 0 0 0.1 0 0.1 0 0.1-0.1 0.2-0.2 0.2-0.4l0-0.1C39.4 23.6 39.3 23.5 39.1 23.5zM38.5 21.9c-0.1 0.1-0.2 0.2-0.2 0.4l0 0.1c0 0.1 0.1 0.2 0.3 0.2 0 0 0.1 0 0.1 0 0.1-0.1 0.2-0.2 0.2-0.4l0-0.1C38.8 21.9 38.6 21.8 38.5 21.9zM40.4 26.9c-0.1 0.1-0.2 0.2-0.2 0.4l0 0.1c0 0.1 0.1 0.2 0.3 0.2 0 0 0.1 0 0.1 0 0.1-0.1 0.2-0.2 0.2-0.4l0-0.1C40.7 26.9 40.5 26.9 40.4 26.9z" fill="#ed2647" data-fill-palette-color="accent"></path></svg></g></svg></g></svg></g></svg></g></svg></g></svg></g><defs></defs></svg><rect width="73.52037000000001" height="95.481" fill="none" stroke="none" visibility="hidden"></rect></g></svg></g></svg>